<svg height="1646" width="720" xmlns="http://www.w3.org/2000/svg">
<rect height="1646" fill="#555" width="720"></rect>
<text fill="#7f7" font-family="Courier New" font-size="12" xml:space="preserve">
<tspan x="10" y="26">5 megabytes installed</tspan>
<tspan x="10" y="42"></tspan>
<tspan x="10" y="58">node_modules</tspan>
<tspan x="10" y="74">└─┬ mqtt@2.6.2 </tspan>
<tspan x="10" y="90">  ├─┬ commist@1.0.0 </tspan>
<tspan x="10" y="106">  │ └── leven@1.0.2 </tspan>
<tspan x="10" y="122">  ├─┬ concat-stream@1.6.0 </tspan>
<tspan x="10" y="138">  │ └── typedarray@0.0.6 </tspan>
<tspan x="10" y="154">  ├─┬ end-of-stream@1.4.0 </tspan>
<tspan x="10" y="170">  │ └─┬ once@1.4.0 </tspan>
<tspan x="10" y="186">  │   └── wrappy@1.0.2 </tspan>
<tspan x="10" y="202">  ├─┬ help-me@1.0.1 </tspan>
<tspan x="10" y="218">  │ ├── callback-stream@1.1.0 </tspan>
<tspan x="10" y="234">  │ ├─┬ glob-stream@5.3.5 </tspan>
<tspan x="10" y="250">  │ │ ├── extend@3.0.0 </tspan>
<tspan x="10" y="266">  │ │ ├─┬ glob@5.0.15 </tspan>
<tspan x="10" y="282">  │ │ │ ├── inflight@1.0.6 </tspan>
<tspan x="10" y="298">  │ │ │ ├─┬ minimatch@3.0.3 </tspan>
<tspan x="10" y="314">  │ │ │ │ └─┬ brace-expansion@1.1.7 </tspan>
<tspan x="10" y="330">  │ │ │ │   ├── balanced-match@0.4.2 </tspan>
<tspan x="10" y="346">  │ │ │ │   └── concat-map@0.0.1 </tspan>
<tspan x="10" y="362">  │ │ │ └── path-is-absolute@1.0.1 </tspan>
<tspan x="10" y="378">  │ │ ├─┬ glob-parent@3.1.0 </tspan>
<tspan x="10" y="394">  │ │ │ ├─┬ is-glob@3.1.0 </tspan>
<tspan x="10" y="410">  │ │ │ │ └── is-extglob@2.1.1 </tspan>
<tspan x="10" y="426">  │ │ │ └── path-dirname@1.0.2 </tspan>
<tspan x="10" y="442">  │ │ ├─┬ micromatch@2.3.11 </tspan>
<tspan x="10" y="458">  │ │ │ ├─┬ arr-diff@2.0.0 </tspan>
<tspan x="10" y="474">  │ │ │ │ └── arr-flatten@1.0.1 </tspan>
<tspan x="10" y="490">  │ │ │ ├── array-unique@0.2.1 </tspan>
<tspan x="10" y="506">  │ │ │ ├─┬ braces@1.8.5 </tspan>
<tspan x="10" y="522">  │ │ │ │ ├─┬ expand-range@1.8.2 </tspan>
<tspan x="10" y="538">  │ │ │ │ │ └─┬ fill-range@2.2.3 </tspan>
<tspan x="10" y="554">  │ │ │ │ │   ├── is-number@2.1.0 </tspan>
<tspan x="10" y="570">  │ │ │ │ │   ├── isobject@2.1.0 </tspan>
<tspan x="10" y="586">  │ │ │ │ │   ├── randomatic@1.1.6 </tspan>
<tspan x="10" y="602">  │ │ │ │ │   └── repeat-string@1.6.1 </tspan>
<tspan x="10" y="618">  │ │ │ │ ├── preserve@0.2.0 </tspan>
<tspan x="10" y="634">  │ │ │ │ └── repeat-element@1.1.2 </tspan>
<tspan x="10" y="650">  │ │ │ ├─┬ expand-brackets@0.1.5 </tspan>
<tspan x="10" y="666">  │ │ │ │ └── is-posix-bracket@0.1.1 </tspan>
<tspan x="10" y="682">  │ │ │ ├─┬ extglob@0.3.2 </tspan>
<tspan x="10" y="698">  │ │ │ │ └── is-extglob@1.0.0 </tspan>
<tspan x="10" y="714">  │ │ │ ├── filename-regex@2.0.0 </tspan>
<tspan x="10" y="730">  │ │ │ ├── is-extglob@1.0.0 </tspan>
<tspan x="10" y="746">  │ │ │ ├── is-glob@2.0.1 </tspan>
<tspan x="10" y="762">  │ │ │ ├─┬ kind-of@3.1.0 </tspan>
<tspan x="10" y="778">  │ │ │ │ └── is-buffer@1.1.5 </tspan>
<tspan x="10" y="794">  │ │ │ ├─┬ normalize-path@2.1.1 </tspan>
<tspan x="10" y="810">  │ │ │ │ └── remove-trailing-separator@1.0.1 </tspan>
<tspan x="10" y="826">  │ │ │ ├─┬ object.omit@2.0.1 </tspan>
<tspan x="10" y="842">  │ │ │ │ ├─┬ for-own@0.1.5 </tspan>
<tspan x="10" y="858">  │ │ │ │ │ └── for-in@1.0.2 </tspan>
<tspan x="10" y="874">  │ │ │ │ └── is-extendable@0.1.1 </tspan>
<tspan x="10" y="890">  │ │ │ ├─┬ parse-glob@3.0.4 </tspan>
<tspan x="10" y="906">  │ │ │ │ ├─┬ glob-base@0.3.0 </tspan>
<tspan x="10" y="922">  │ │ │ │ │ ├── glob-parent@2.0.0 </tspan>
<tspan x="10" y="938">  │ │ │ │ │ └─┬ is-glob@2.0.1 </tspan>
<tspan x="10" y="954">  │ │ │ │ │   └── is-extglob@1.0.0 </tspan>
<tspan x="10" y="970">  │ │ │ │ ├── is-dotfile@1.0.2 </tspan>
<tspan x="10" y="986">  │ │ │ │ ├── is-extglob@1.0.0 </tspan>
<tspan x="10" y="1002">  │ │ │ │ └── is-glob@2.0.1 </tspan>
<tspan x="10" y="1018">  │ │ │ └─┬ regex-cache@0.4.3 </tspan>
<tspan x="10" y="1034">  │ │ │   ├── is-equal-shallow@0.1.3 </tspan>
<tspan x="10" y="1050">  │ │ │   └── is-primitive@2.0.0 </tspan>
<tspan x="10" y="1066">  │ │ ├─┬ ordered-read-streams@0.3.0 </tspan>
<tspan x="10" y="1082">  │ │ │ └── is-stream@1.1.0 </tspan>
<tspan x="10" y="1098">  │ │ ├─┬ through2@0.6.5 </tspan>
<tspan x="10" y="1114">  │ │ │ └─┬ readable-stream@1.0.34 </tspan>
<tspan x="10" y="1130">  │ │ │   ├── isarray@0.0.1 </tspan>
<tspan x="10" y="1146">  │ │ │   └── string_decoder@0.10.31 </tspan>
<tspan x="10" y="1162">  │ │ ├─┬ to-absolute-glob@0.1.1 </tspan>
<tspan x="10" y="1178">  │ │ │ └── extend-shallow@2.0.1 </tspan>
<tspan x="10" y="1194">  │ │ └─┬ unique-stream@2.2.1 </tspan>
<tspan x="10" y="1210">  │ │   ├─┬ json-stable-stringify@1.0.1 </tspan>
<tspan x="10" y="1226">  │ │   │ └── jsonify@0.0.0 </tspan>
<tspan x="10" y="1242">  │ │   └── through2-filter@2.0.0 </tspan>
<tspan x="10" y="1258">  │ └── through2@2.0.3 </tspan>
<tspan x="10" y="1274">  ├── inherits@2.0.3 </tspan>
<tspan x="10" y="1290">  ├── minimist@1.2.0 </tspan>
<tspan x="10" y="1306">  ├─┬ mqtt-packet@5.3.0 </tspan>
<tspan x="10" y="1322">  │ ├── bl@1.2.0 </tspan>
<tspan x="10" y="1338">  │ ├── process-nextick-args@1.0.7 </tspan>
<tspan x="10" y="1354">  │ └── safe-buffer@5.0.1 </tspan>
<tspan x="10" y="1370">  ├── pump@1.0.2 </tspan>
<tspan x="10" y="1386">  ├─┬ readable-stream@2.2.9 </tspan>
<tspan x="10" y="1402">  │ ├── buffer-shims@1.0.0 </tspan>
<tspan x="10" y="1418">  │ ├── core-util-is@1.0.2 </tspan>
<tspan x="10" y="1434">  │ ├── isarray@1.0.0 </tspan>
<tspan x="10" y="1450">  │ ├── string_decoder@1.0.0 </tspan>
<tspan x="10" y="1466">  │ └── util-deprecate@1.0.2 </tspan>
<tspan x="10" y="1482">  ├── reinterval@1.1.0 </tspan>
<tspan x="10" y="1498">  ├── split2@2.1.1 </tspan>
<tspan x="10" y="1514">  ├─┬ websocket-stream@4.0.0 </tspan>
<tspan x="10" y="1530">  │ ├─┬ duplexify@3.5.0 </tspan>
<tspan x="10" y="1546">  │ │ ├─┬ end-of-stream@1.0.0 </tspan>
<tspan x="10" y="1562">  │ │ │ └── once@1.3.3 </tspan>
<tspan x="10" y="1578">  │ │ └── stream-shift@1.0.0 </tspan>
<tspan x="10" y="1594">  │ └─┬ ws@2.2.3 </tspan>
<tspan x="10" y="1610">  │   └── ultron@1.1.0 </tspan>
<tspan x="10" y="1626">  └── xtend@4.0.1</tspan>
</text>
</svg>
