<svg height="1118" width="720" xmlns="http://www.w3.org/2000/svg">
<rect height="1118" fill="#555" width="720"></rect>
<text fill="#7f7" font-family="Courier New" font-size="12" xml:space="preserve">
<tspan x="10" y="26">4 megabytes installed</tspan>
<tspan x="10" y="42"></tspan>
<tspan x="10" y="58">node_modules</tspan>
<tspan x="10" y="74">└─┬ mqtt@2.6.2 </tspan>
<tspan x="10" y="90">  ├─┬ commist@1.0.0 </tspan>
<tspan x="10" y="106">  │ └── leven@1.0.2 </tspan>
<tspan x="10" y="122">  ├─┬ concat-stream@1.6.0 </tspan>
<tspan x="10" y="138">  │ └── typedarray@0.0.6 </tspan>
<tspan x="10" y="154">  ├─┬ end-of-stream@1.4.0 </tspan>
<tspan x="10" y="170">  │ └─┬ once@1.4.0 </tspan>
<tspan x="10" y="186">  │   └── wrappy@1.0.2 </tspan>
<tspan x="10" y="202">  ├─┬ help-me@1.1.0 </tspan>
<tspan x="10" y="218">  │ ├── callback-stream@1.1.0 </tspan>
<tspan x="10" y="234">  │ ├─┬ glob-stream@6.1.0 </tspan>
<tspan x="10" y="250">  │ │ ├── extend@3.0.0 </tspan>
<tspan x="10" y="266">  │ │ ├─┬ glob@7.1.1 </tspan>
<tspan x="10" y="282">  │ │ │ ├── fs.realpath@1.0.0 </tspan>
<tspan x="10" y="298">  │ │ │ ├── inflight@1.0.6 </tspan>
<tspan x="10" y="314">  │ │ │ ├─┬ minimatch@3.0.3 </tspan>
<tspan x="10" y="330">  │ │ │ │ └─┬ brace-expansion@1.1.7 </tspan>
<tspan x="10" y="346">  │ │ │ │   ├── balanced-match@0.4.2 </tspan>
<tspan x="10" y="362">  │ │ │ │   └── concat-map@0.0.1 </tspan>
<tspan x="10" y="378">  │ │ │ └── path-is-absolute@1.0.1 </tspan>
<tspan x="10" y="394">  │ │ ├─┬ glob-parent@3.1.0 </tspan>
<tspan x="10" y="410">  │ │ │ ├─┬ is-glob@3.1.0 </tspan>
<tspan x="10" y="426">  │ │ │ │ └── is-extglob@2.1.1 </tspan>
<tspan x="10" y="442">  │ │ │ └── path-dirname@1.0.2 </tspan>
<tspan x="10" y="458">  │ │ ├── is-negated-glob@1.0.0 </tspan>
<tspan x="10" y="474">  │ │ ├─┬ ordered-read-streams@1.0.0 </tspan>
<tspan x="10" y="490">  │ │ │ └── is-stream@1.1.0 </tspan>
<tspan x="10" y="506">  │ │ ├── pumpify@1.3.5 </tspan>
<tspan x="10" y="522">  │ │ ├── remove-trailing-separator@1.0.1 </tspan>
<tspan x="10" y="538">  │ │ ├─┬ to-absolute-glob@2.0.1 </tspan>
<tspan x="10" y="554">  │ │ │ ├─┬ extend-shallow@2.0.1 </tspan>
<tspan x="10" y="570">  │ │ │ │ └── is-extendable@0.1.1 </tspan>
<tspan x="10" y="586">  │ │ │ └─┬ is-absolute@0.2.6 </tspan>
<tspan x="10" y="602">  │ │ │   ├─┬ is-relative@0.2.1 </tspan>
<tspan x="10" y="618">  │ │ │   │ └─┬ is-unc-path@0.1.2 </tspan>
<tspan x="10" y="634">  │ │ │   │   └── unc-path-regex@0.1.2 </tspan>
<tspan x="10" y="650">  │ │ │   └── is-windows@0.2.0 </tspan>
<tspan x="10" y="666">  │ │ └─┬ unique-stream@2.2.1 </tspan>
<tspan x="10" y="682">  │ │   ├─┬ json-stable-stringify@1.0.1 </tspan>
<tspan x="10" y="698">  │ │   │ └── jsonify@0.0.0 </tspan>
<tspan x="10" y="714">  │ │   └── through2-filter@2.0.0 </tspan>
<tspan x="10" y="730">  │ └── through2@2.0.3 </tspan>
<tspan x="10" y="746">  ├── inherits@2.0.3 </tspan>
<tspan x="10" y="762">  ├── minimist@1.2.0 </tspan>
<tspan x="10" y="778">  ├─┬ mqtt-packet@5.3.0 </tspan>
<tspan x="10" y="794">  │ ├── bl@1.2.0 </tspan>
<tspan x="10" y="810">  │ ├── process-nextick-args@1.0.7 </tspan>
<tspan x="10" y="826">  │ └── safe-buffer@5.0.1 </tspan>
<tspan x="10" y="842">  ├── pump@1.0.2 </tspan>
<tspan x="10" y="858">  ├─┬ readable-stream@2.2.9 </tspan>
<tspan x="10" y="874">  │ ├── buffer-shims@1.0.0 </tspan>
<tspan x="10" y="890">  │ ├── core-util-is@1.0.2 </tspan>
<tspan x="10" y="906">  │ ├── isarray@1.0.0 </tspan>
<tspan x="10" y="922">  │ ├── string_decoder@1.0.0 </tspan>
<tspan x="10" y="938">  │ └── util-deprecate@1.0.2 </tspan>
<tspan x="10" y="954">  ├── reinterval@1.1.0 </tspan>
<tspan x="10" y="970">  ├── split2@2.1.1 </tspan>
<tspan x="10" y="986">  ├─┬ websocket-stream@4.0.0 </tspan>
<tspan x="10" y="1002">  │ ├─┬ duplexify@3.5.0 </tspan>
<tspan x="10" y="1018">  │ │ ├─┬ end-of-stream@1.0.0 </tspan>
<tspan x="10" y="1034">  │ │ │ └── once@1.3.3 </tspan>
<tspan x="10" y="1050">  │ │ └── stream-shift@1.0.0 </tspan>
<tspan x="10" y="1066">  │ └─┬ ws@2.2.3 </tspan>
<tspan x="10" y="1082">  │   └── ultron@1.1.0 </tspan>
<tspan x="10" y="1098">  └── xtend@4.0.1</tspan>
</text>
</svg>
